<svg
  xmlns="http://www.w3.org/2000/svg" height="477.08" width="1000" viewBox="0 0 264.583 126.228">
  <g fill="#292f33">
    <path d="M66.146 39.69v46.853h132.29V39.69zm22.049 2.756h107.49v41.341H88.195z"/>
    <path fill="#77b255" d="M77.17 70.01a4.01 4.01 0 1 1 .001 8.019 4.01 4.01 0 0 1-.001-8.02"/>
    <path fill="#ffcc4d" d="M77.17 58.98a4.01 4.01 0 1 1 .001 8.019 4.01 4.01 0 0 1-.001-8.02"/>
    <path fill="#dd2e44" d="M77.17 47.96a4.01 4.01 0 1 1 .001 8.019 4.01 4.01 0 0 1-.001-8.02"/>
    <path d="M99.217 57.99q0-1.072.33-1.905.345-.847.914-1.429.582-.582 1.349-.886.78-.304 1.654-.304.912 0 1.574.344.675.343 1.098.78l-1.072 1.204q-.317-.304-.674-.476-.344-.172-.9-.172-.503 0-.926.198-.41.185-.714.543-.305.357-.477.873-.158.516-.158 1.164 0 1.336.595 2.077.608.727 1.825.727.265 0 .516-.066.252-.066.41-.198v-1.482h-1.428v-1.587h3.148v3.969q-.463.436-1.217.74-.754.305-1.667.305-.873 0-1.64-.278-.754-.291-1.323-.847-.569-.555-.9-1.376-.317-.833-.317-1.918zM111.013 57.6h1.005q.768 0 1.165-.317.41-.331.41-.966t-.41-.887q-.397-.25-1.165-.25h-1.005zm2.725 4.657l-1.653-3.11h-1.072v3.11h-1.945V53.63h3.11q.687 0 1.282.133.609.132 1.059.45.45.304.714.82.265.516.265 1.283 0 .952-.424 1.574-.41.609-1.11.913l1.957 3.453zM118.2 53.63h5.397v1.64h-3.452v1.733h2.937v1.628h-2.937v1.984h3.585v1.64h-5.53zM126.453 53.63h5.397v1.64h-3.452v1.733h2.937v1.628h-2.937v1.984h3.585v1.64h-5.53zM134.705 53.63h1.998l2.249 4.286.846 1.905h.053q-.066-.688-.159-1.534-.079-.847-.079-1.614V53.63h1.852v8.625h-1.997l-2.25-4.3-.846-1.878h-.053q.066.715.145 1.535.093.82.093 1.587v3.056h-1.852zM144.483 53.63h1.945v6.985h3.413v1.64h-5.358zM152.322 53.63h1.945v8.625h-1.945zM156.883 57.99q0-1.072.33-1.905.345-.847.914-1.429.582-.582 1.349-.886.78-.304 1.654-.304.912 0 1.574.344.675.343 1.098.78l-1.072 1.204q-.317-.304-.674-.476-.344-.172-.9-.172-.503 0-.926.198-.41.185-.714.543-.305.357-.477.873-.158.516-.158 1.164 0 1.336.595 2.077.608.727 1.825.727.265 0 .516-.066.252-.066.41-.198v-1.482H160.8v-1.587h3.148v3.969q-.463.436-1.217.74-.754.305-1.667.305-.873 0-1.64-.278-.754-.291-1.323-.847-.569-.555-.9-1.376-.317-.833-.317-1.918zM166.734 53.63h1.945v3.32h2.976v-3.32h1.958v8.625h-1.958v-3.598h-2.976v3.598h-1.945zM178.324 55.27h-2.368v-1.64h6.694v1.64h-2.368v6.985h-1.958z"/>
    <path d="M101.962 70.73l-.338-.97-.294-.838q-.132-.397-.265-.853h-.029q-.132.456-.272.853-.132.397-.287.838l-.345.97zm.073.206h-1.977l-.61 1.734h-.235l1.735-4.85h.206l1.734 4.85h-.25zM105.335 67.82h.235v2.984q0 .5.11.838.11.33.294.529.191.198.434.287.25.08.514.08.272 0 .522-.08.25-.089.441-.287.191-.199.302-.53.117-.337.117-.837V67.82h.22v3.043q0 .566-.139.933-.14.36-.367.58-.228.214-.515.295-.287.088-.58.088t-.581-.088q-.28-.081-.507-.294-.22-.22-.36-.58-.14-.368-.14-.934zM111.772 67.82h1.088q.558 0 .97.176.411.17.676.493.272.316.397.764.132.441.132.978 0 .544-.132.992-.125.448-.397.772-.265.316-.676.5-.412.176-.97.176h-1.088zm1.058 4.645q.515 0 .882-.17.375-.168.61-.462.243-.301.353-.713.11-.412.11-.89t-.11-.881-.353-.699q-.235-.293-.61-.455-.367-.17-.882-.17h-.823v4.44zM117.965 67.82h.235v4.85h-.235zM122.517 68.03h-1.573v-.206h3.381v.206h-1.573v4.645h-.235zM130.299 67.82h2.602v.206h-2.367v1.955h1.984v.206h-1.984v2.278h2.44v.206H130.3zM135.141 67.82h.25l.94 2.91q.074.228.133.427.066.198.125.397.066.19.125.396.066.199.147.42h.03l.139-.42q.066-.205.125-.396.066-.199.125-.397l.14-.427.94-2.91h.235l-1.602 4.85h-.235zM141.163 67.82h2.602v.206h-2.367v1.955h1.985v.206h-1.985v2.278h2.44v.206h-2.675zM147.945 70.17q.676 0 1.036-.265.36-.272.36-.837 0-.574-.36-.809-.36-.235-1.036-.235h-1.014v2.146zm1.44 2.499l-1.367-2.293h-1.087v2.293h-.235v-4.85h1.337q.36 0 .647.073.287.066.485.22.206.147.316.382.11.235.11.574 0 .58-.352.91-.346.324-.956.383l1.382 2.308zM153.222 70.67l-1.455-2.852h.25l.779 1.573q.132.265.257.522t.272.522h.03q.146-.265.279-.522.14-.257.264-.522l.78-1.573h.234l-1.455 2.852v2h-.235zM158.446 68.03h-1.573v-.206h3.381v.206h-1.573v4.645h-.235zM162.994 67.82h.235v2.16h2.72v-2.16h.235v4.85h-.236v-2.483h-2.719v2.484h-.235zM169.444 67.82h.235v4.85h-.235zM172.934 67.82h.25l2.146 3.557.559.956h.029q-.015-.353-.022-.684-.007-.338-.007-.683V67.82h.22v4.85h-.25l-2.146-3.556-.558-.956h-.03q.015.346.022.662.007.316.007.661v3.19h-.22zM179.054 70.23q0-.573.147-1.036.154-.463.426-.787.28-.323.67-.5.396-.176.874-.176.242 0 .44.052.2.051.353.14.162.08.28.183.125.103.22.198l-.147.162q-.19-.213-.463-.36-.272-.154-.683-.154-.434 0-.78.161-.345.155-.587.456-.243.294-.375.72-.125.42-.125.94 0 .523.125.949.125.426.353.728.235.301.566.47.338.162.764.162.353 0 .661-.103.309-.103.5-.294v-1.602h-1.205v-.206h1.44v1.881q-.22.243-.58.397-.353.147-.83.147-.464 0-.846-.176-.375-.184-.64-.515t-.411-.793q-.147-.47-.147-1.044z"/>
  </g>
</svg>
