<svg 
  xmlns="http://www.w3.org/2000/svg" height="425.008" width="1200" viewBox="0 0 317.5 112.448">
  <g fill="#292f33">
    <path d="M0 0v112.44h317.5V0zm52.917 6.615h257.97v99.219H52.917z"/>
    <path fill="#77b255" d="M26.458 72.76c5.316 0 9.624 4.308 9.624 9.621s-4.308 9.621-9.624 9.621c-5.313 0-9.62-4.309-9.62-9.621 0-5.314 4.307-9.621 9.62-9.621"/>
    <path fill="#ffcc4d" d="M26.458 46.3c5.316 0 9.624 4.308 9.624 9.621s-4.308 9.621-9.624 9.621c-5.313 0-9.62-4.307-9.62-9.621 0-5.312 4.307-9.621 9.62-9.621"/>
    <path fill="#dd2e44" d="M26.458 19.84c5.316 0 9.624 4.308 9.624 9.621s-4.308 9.621-9.624 9.621c-5.313 0-9.62-4.308-9.62-9.621 0-5.313 4.307-9.621 9.62-9.621"/>
    <path d="M79.372 43.92q0-2.572.794-4.572.826-2.032 2.19-3.429 1.398-1.397 3.24-2.127 1.873-.73 3.968-.73 2.191 0 3.778.825 1.62.826 2.636 1.873l-2.572 2.89q-.762-.73-1.62-1.144-.825-.412-2.158-.412-1.207 0-2.223.476-.984.444-1.714 1.302-.73.857-1.143 2.095-.381 1.238-.381 2.794 0 3.207 1.428 4.985 1.46 1.746 4.382 1.746.635 0 1.238-.158.603-.16.984-.477v-3.556H88.77v-3.81h7.557v9.525q-1.111 1.048-2.921 1.778-1.81.73-4 .73-2.096 0-3.938-.666-1.81-.699-3.175-2.032t-2.159-3.302q-.762-2-.762-4.604zm28.306-.95h2.413q1.842 0 2.794-.762.985-.794.985-2.318t-.985-2.127q-.952-.603-2.794-.603h-2.413zm6.54 11.176l-3.968-7.461h-2.572v7.461h-4.667V33.445h7.461q1.651 0 3.08.318 1.46.317 2.54 1.079 1.08.73 1.715 1.969t.635 3.08q0 2.285-1.016 3.778-.985 1.46-2.667 2.19l4.699 8.287zm10.71-20.696h12.954v3.937h-8.287v4.16h7.049v3.904h-7.049v4.763h8.605v3.937h-13.272zm19.81 0h12.954v3.937h-8.286v4.16h7.048v3.904h-7.048v4.763h8.604v3.937h-13.272zm19.81 0h4.795l5.397 10.287 2.032 4.572h.127q-.159-1.651-.381-3.683-.19-2.032-.19-3.873V33.45h4.445v20.701h-4.795l-5.397-10.319-2.032-4.508h-.127q.159 1.714.35 3.683.221 1.968.221 3.81v7.334h-4.445zm23.46 0h4.668v16.764h8.191v3.937h-12.859zm18.81 0h4.668v20.701h-4.668zm10.95 10.47q0-2.572.794-4.572.826-2.032 2.19-3.429 1.398-1.397 3.24-2.127 1.873-.73 3.968-.73 2.19 0 3.778.825 1.62.826 2.636 1.873l-2.572 2.89q-.762-.73-1.62-1.144-.825-.412-2.158-.412-1.207 0-2.223.476-.984.444-1.714 1.302-.73.857-1.143 2.095-.381 1.238-.381 2.794 0 3.207 1.428 4.985 1.46 1.746 4.382 1.746.635 0 1.238-.158.603-.16.984-.477v-3.556h-3.429v-3.81h7.557v9.525q-1.111 1.048-2.921 1.778-1.81.73-4 .73-2.096 0-3.938-.666-1.81-.699-3.175-2.032t-2.159-3.302q-.762-2-.762-4.604zm23.64-10.47h4.668v7.97h7.143v-7.97h4.7v20.701h-4.7v-8.636h-7.144v8.636h-4.667zm27.81 3.93h-5.683v-3.937h16.066v3.937h-5.683v16.764h-4.7z" aria-label="GREENLIGHT"/>
    <path d="M85.96 74.5l-.812-2.328q-.37-1.059-.706-2.011-.317-.953-.635-2.046h-.07q-.318 1.093-.653 2.046-.317.952-.688 2.01l-.829 2.329zm.176.494H81.39l-1.464 4.163h-.565l4.163-11.642h.494l4.163 11.642h-.6zm7.918-7.484h.565v7.161q0 1.2.264 2.011.265.794.706 1.27.458.476 1.04.688.6.194 1.235.194.653 0 1.253-.194.6-.212 1.058-.688.459-.476.723-1.27.282-.811.282-2.01V67.51h.53v7.303q0 1.358-.336 2.24-.335.864-.882 1.393-.546.512-1.234.706-.688.211-1.394.211-.705 0-1.393-.211-.67-.194-1.217-.706-.53-.53-.865-1.393-.335-.882-.335-2.24zm15.454 0h2.61q1.342 0 2.33.423.987.406 1.622 1.182.653.759.953 1.835.317 1.058.317 2.346 0 1.305-.318 2.38-.3 1.077-.952 1.853-.635.758-1.623 1.2-.988.423-2.328.423h-2.61zm2.54 11.148q1.235 0 2.117-.406.9-.405 1.464-1.11.582-.724.847-1.712.264-.988.264-2.134t-.264-2.117q-.265-.97-.847-1.676-.564-.705-1.464-1.093-.882-.406-2.117-.406h-1.975v10.654zm12.32-11.148h.565v11.642h-.565zm10.92.5h-3.774v-.494h8.114v.494h-3.775v11.148h-.565zm18.68-.5h6.245v.494h-5.68v4.692h4.762v.494h-4.762v5.468h5.856v.494h-6.42zm11.62 0h.6l2.258 6.985q.176.547.317 1.023.16.476.3.953.159.458.3.952.159.476.353 1.006h.07l.336-1.006q.158-.494.3-.952.158-.477.3-.953.158-.476.334-1.023l2.258-6.985h.565l-3.846 11.642h-.564zm14.45 0h6.245v.494h-5.68v4.692h4.762v.494h-4.762v5.468h5.856v.494h-6.42zm16.28 5.65q1.623 0 2.487-.635.865-.653.865-2.01 0-1.377-.865-1.941-.864-.565-2.487-.565h-2.434v5.151zm3.458 5.997l-3.281-5.503h-2.61v5.503h-.565V67.515h3.21q.864 0 1.552.177.688.158 1.164.529.494.353.759.917.264.564.264 1.376 0 1.393-.846 2.187-.83.776-2.293.917l3.316 5.539zm9.202-4.797l-3.492-6.844h.6l1.87 3.775q.317.635.617 1.252.3.618.652 1.253h.07q.354-.635.671-1.253.335-.617.635-1.252l1.87-3.775h.564l-3.492 6.844v4.798h-.565zm12.54-6.35h-3.774v-.494h8.114v.494h-3.775v11.148h-.565zm10.91-.5h.565v5.186h6.526V67.51h.565v11.642h-.565V73.19h-6.526v5.962h-.565zm15.48 0h.565v11.642h-.565zm8.39 0h.6l5.15 8.537 1.341 2.293h.07q-.034-.846-.052-1.64-.018-.811-.018-1.64v-7.55h.53v11.642h-.6l-5.15-8.537-1.341-2.293h-.071q.035.829.053 1.587t.017 1.588v7.655h-.529zm14.67 5.79q0-1.376.353-2.487.37-1.111 1.023-1.887.67-.777 1.605-1.2.953-.423 2.1-.423.581 0 1.058.123.476.124.846.335.388.194.67.441.3.247.53.477l-.353.388q-.459-.512-1.111-.865-.653-.37-1.64-.37-1.041 0-1.87.388-.83.37-1.411 1.094-.583.705-.9 1.728-.3 1.006-.3 2.258t.3 2.275q.3 1.023.847 1.747.564.723 1.358 1.128.811.389 1.834.389.847 0 1.588-.247.74-.247 1.2-.706v-3.845H275.8v-.494h3.457v4.515q-.529.583-1.393.953-.847.353-1.993.353-1.111 0-2.029-.424-.9-.44-1.534-1.234-.635-.794-.988-1.905-.353-1.13-.353-2.505z" aria-label="AUDIT EVERYTHING"/>
  </g>
</svg>