<svg
  xmlns="http://www.w3.org/2000/svg" width="900" height="900" viewBox="0 0 238.125 238.125">
  <g fill="#292f33">
    <path d="M0 0v238.125h238.125V0zm7.938 7.938h222.25v111.125H7.938z" />
    <path fill="#77b255" d="M194.733 205.833c15.18 0 27.48-12.302 27.48-27.474s-12.301-27.474-27.48-27.474c-15.172 0-27.473 12.306-27.473 27.475 0 15.173 12.301 27.474 27.473 27.474" />
    <path fill="#ffcc4d" d="M119.178 205.833c15.18 0 27.48-12.302 27.48-27.474s-12.302-27.474-27.48-27.474c-15.172 0-27.474 12.3-27.474 27.475 0 15.169 12.302 27.474 27.474 27.474" />
    <path fill="#dd2e44" d="M43.628 205.833c15.179 0 27.48-12.301 27.48-27.474 0-15.172-12.302-27.474-27.48-27.474-15.172 0-27.474 12.303-27.474 27.475s12.302 27.474 27.474 27.474" />
    <path d="M19.047 51.015q0-2.572.794-4.572.826-2.032 2.19-3.43 1.398-1.396 3.24-2.126 1.873-.73 3.968-.73 2.19 0 3.778.825 1.62.825 2.636 1.873l-2.572 2.89q-.762-.731-1.62-1.144-.825-.412-2.158-.412-1.207 0-2.223.476-.984.444-1.714 1.302-.73.857-1.143 2.095-.381 1.238-.381 2.794 0 3.207 1.428 4.985 1.46 1.746 4.382 1.746.635 0 1.238-.159.603-.158.984-.476v-3.556h-3.429v-3.81h7.557v9.525q-1.111 1.048-2.921 1.778-1.81.73-4 .73-2.096 0-3.938-.666-1.81-.699-3.175-2.032-1.365-1.334-2.159-3.302-.762-2-.762-4.604zm28.311-.953h2.413q1.841 0 2.794-.762.984-.793.984-2.317t-.984-2.128q-.953-.603-2.794-.603h-2.413zm6.54 11.176l-3.968-7.461h-2.572v7.461H42.69v-20.7h7.46q1.652 0 3.08.317 1.461.317 2.54 1.08 1.08.73 1.715 1.968t.635 3.08q0 2.286-1.016 3.778-.984 1.46-2.667 2.19l4.7 8.287zm10.708-20.701H77.56v3.937h-8.287v4.16h7.048v3.905h-7.048V57.3h8.604v3.937H64.606zm19.806 0h12.954v3.937H89.08v4.16h7.049v3.905H89.08V57.3h8.605v3.937H84.412zm19.807 0h4.794l5.397 10.287 2.032 4.572h.127q-.158-1.65-.38-3.683-.191-2.032-.191-3.873v-7.303h4.445v20.701h-4.794L110.25 50.92l-2.032-4.509h-.127q.159 1.715.35 3.683.222 1.969.222 3.81v7.334h-4.445zm23.465 0h4.667v16.764h8.192v3.937h-12.86zm18.814 0h4.667v20.701h-4.667zm10.947 10.478q0-2.572.794-4.572.825-2.032 2.19-3.43 1.398-1.396 3.239-2.126 1.873-.73 3.969-.73 2.19 0 3.778.825 1.62.825 2.635 1.873l-2.571 2.89q-.762-.731-1.62-1.144-.825-.412-2.159-.412-1.206 0-2.222.476-.984.444-1.715 1.302-.73.857-1.143 2.095-.38 1.238-.38 2.794 0 3.207 1.428 4.985 1.46 1.746 4.382 1.746.635 0 1.238-.159.603-.158.984-.476v-3.556h-3.429v-3.81h7.557v9.525q-1.112 1.048-2.921 1.778-1.81.73-4.001.73-2.095 0-3.937-.666-1.81-.699-3.175-2.032-1.365-1.334-2.159-3.302-.762-2-.762-4.604zm23.643-10.478h4.668v7.97h7.143v-7.97h4.7v20.701h-4.7v-8.636h-7.143v8.636h-4.668zm27.808 3.937h-5.683v-3.937h16.065v3.937h-5.683v16.764h-4.7z" style="-inkscape-font-specification:'Source Sans Pro, Bold';font-variant-ligatures:normal;font-variant-caps:normal;font-variant-numeric:normal;font-feature-settings:normal;text-align:start" aria-label="GREENLIGHT" font-weight="700" font-size="31.75" font-family="Source Sans Pro" letter-spacing="2.381" word-spacing="0" />
    <path d="M25.634 81.59l-.811-2.329q-.37-1.058-.706-2.01-.317-.953-.635-2.047h-.07q-.318 1.094-.653 2.046-.318.953-.688 2.011l-.83 2.329zm.176.493h-4.744L19.6 86.246h-.564L23.2 74.605h.494l4.162 11.641h-.6zm7.92-7.478h.564v7.161q0 1.2.264 2.01.265.795.706 1.27.459.477 1.04.689.6.194 1.235.194.653 0 1.253-.194.6-.212 1.058-.688.459-.476.723-1.27.283-.812.283-2.011v-7.161h.529v7.302q0 1.358-.335 2.24-.336.865-.882 1.394-.547.511-1.235.705-.688.212-1.394.212-.705 0-1.393-.212-.67-.194-1.217-.705-.53-.53-.864-1.394-.336-.882-.336-2.24zm15.449 0h2.61q1.34 0 2.328.423.988.406 1.623 1.182.653.758.953 1.834.317 1.058.317 2.346 0 1.305-.317 2.381-.3 1.076-.953 1.852-.635.759-1.623 1.2-.987.423-2.328.423h-2.61zm2.54 11.147q1.234 0 2.116-.405.9-.406 1.464-1.112.582-.723.847-1.71.265-.988.265-2.135 0-1.146-.265-2.117-.265-.97-.847-1.675-.564-.706-1.464-1.094-.882-.406-2.116-.406h-1.976v10.654zm12.322-11.147h.565v11.641h-.565zm10.926.493h-3.775v-.493h8.114v.493h-3.774v11.148h-.565zm18.676-.493h6.244v.493h-5.68v4.692h4.763v.494h-4.762v5.468h5.856v.494h-6.42zm11.62 0h.6l2.258 6.985q.176.546.317 1.023.159.476.3.952.159.459.3.953.159.476.353 1.005h.07l.335-1.005q.16-.494.3-.953.159-.476.3-.952.159-.477.335-1.023l2.258-6.985h.564l-3.845 11.641h-.564zm14.454 0h6.244v.493h-5.68v4.692h4.763v.494h-4.763v5.468h5.856v.494h-6.42zm16.276 5.644q1.623 0 2.487-.635.865-.653.865-2.01 0-1.377-.865-1.941-.864-.565-2.487-.565h-2.434v5.151zm3.458 5.997l-3.281-5.503h-2.61v5.503h-.565V74.605h3.21q.864 0 1.552.176.688.159 1.164.53.494.352.759.916.264.565.264 1.376 0 1.394-.846 2.187-.83.777-2.293.918l3.316 5.538zm9.207-4.798l-3.493-6.843h.6l1.87 3.774q.317.635.617 1.253.3.617.652 1.252h.071q.353-.635.67-1.252.335-.618.635-1.253l1.87-3.774h.565l-3.493 6.843v4.798h-.564zm12.537-6.35h-3.775v-.493h8.114v.493h-3.775v11.148h-.564zm10.91-.493h.565v5.185h6.526v-5.185h.564v11.641h-.564v-5.962h-6.526v5.962h-.565zm15.483 0h.564v11.641h-.564zm8.386 0h.6l5.15 8.537 1.34 2.293h.071q-.035-.847-.053-1.64-.017-.812-.017-1.641v-7.55h.529v11.642h-.6l-5.15-8.537-1.341-2.293h-.07q.035.829.052 1.587.018.759.018 1.588v7.655h-.53zm14.672 5.785q0-1.376.353-2.487.37-1.111 1.023-1.887.67-.776 1.605-1.2.953-.423 2.1-.423.581 0 1.057.123.477.124.847.336.388.194.67.44.3.247.53.477l-.353.388q-.459-.512-1.111-.865-.653-.37-1.64-.37-1.042 0-1.87.388-.83.37-1.412 1.094-.582.705-.9 1.728-.3 1.006-.3 2.258t.3 2.276q.3 1.023.847 1.746.565.723 1.359 1.129.81.388 1.834.388.847 0 1.587-.247.741-.247 1.2-.706v-3.845h-2.893v-.494h3.457v4.516q-.529.582-1.393.952-.847.353-1.993.353-1.112 0-2.029-.423-.9-.441-1.534-1.235-.635-.794-.988-1.905-.353-1.129-.353-2.505z" style="-inkscape-font-specification:'Source Sans Pro Ultra-Light';font-variant-ligatures:normal;font-variant-caps:normal;font-variant-numeric:normal;font-feature-settings:normal;text-align:start" aria-label="AUDIT EVERYTHING" font-weight="200" font-size="17.639" font-family="Source Sans Pro" letter-spacing="4.286" word-spacing="0" />
  </g>
</svg>
