<?xml version="1.0" encoding="UTF-8" standalone="no"?>
<!-- Created with Inkscape (http://www.inkscape.org/) -->

<svg
   xmlns:dc="http://purl.org/dc/elements/1.1/"
   xmlns:cc="http://creativecommons.org/ns#"
   xmlns:rdf="http://www.w3.org/1999/02/22-rdf-syntax-ns#"
   xmlns:svg="http://www.w3.org/2000/svg"
   xmlns="http://www.w3.org/2000/svg"
   xmlns:sodipodi="http://sodipodi.sourceforge.net/DTD/sodipodi-0.dtd"
   xmlns:inkscape="http://www.inkscape.org/namespaces/inkscape"
   width="900"
   height="900.00006"
   viewBox="0 0 238.125 238.12502"
   version="1.1"
   id="svg8"
   sodipodi:docname="square-black.svg"
   inkscape:version="0.92.2 (5c3e80d, 2017-08-06)"
   inkscape:export-filename="/home/ahmad/Projects/greenlight-ci/brand/logo/square.png"
   inkscape:export-xdpi="106.66666"
   inkscape:export-ydpi="106.66666">
  <title
     id="title40">Greenlight Logo</title>
  <defs
     id="defs2" />
  <sodipodi:namedview
     id="base"
     pagecolor="#ffffff"
     bordercolor="#666666"
     borderopacity="1.0"
     inkscape:pageopacity="0.0"
     inkscape:pageshadow="2"
     inkscape:zoom="0.75416667"
     inkscape:cx="363.38899"
     inkscape:cy="292.12445"
     inkscape:document-units="mm"
     inkscape:current-layer="layer1"
     showgrid="true"
     showguides="false"
     objecttolerance="20"
     fit-margin-top="0"
     fit-margin-left="0"
     fit-margin-right="0"
     fit-margin-bottom="0"
     inkscape:measure-start="0,0"
     inkscape:measure-end="0,0"
     inkscape:window-width="2560"
     inkscape:window-height="1380"
     inkscape:window-x="0"
     inkscape:window-y="1440"
     inkscape:window-maximized="1"
     viewbox-height="112.45"
     units="px"
     guidetolerance="20"
     gridtolerance="10"
     inkscape:snap-tangential="true">
    <inkscape:grid
       type="xygrid"
       id="grid12"
       originx="-79.375001"
       originy="119.06251"
       spacingx="7.9375001"
       spacingy="7.9375001"
       snapvisiblegridlinesonly="true" />
  </sodipodi:namedview>
  <metadata
     id="metadata5">
    <rdf:RDF>
      <cc:Work
         rdf:about="">
        <dc:format>image/svg+xml</dc:format>
        <dc:type
           rdf:resource="http://purl.org/dc/dcmitype/StillImage" />
        <dc:title>Greenlight Logo</dc:title>
        <dc:creator>
          <cc:Agent>
            <dc:title>Ah</dc:title>
          </cc:Agent>
        </dc:creator>
      </cc:Work>
    </rdf:RDF>
  </metadata>
  <g
     inkscape:label="Layer 1"
     inkscape:groupmode="layer"
     id="layer1"
     transform="translate(-84.666669,-177.93751)">
    <path
       style="fill:#292f33;fill-opacity:1;stroke-width:0.25709707"
       d="M 84.666669,177.93751 V 416.06252 H 322.79167 V 177.93751 Z"
       id="rect10"
       inkscape:connector-curvature="0"
       sodipodi:nodetypes="ccccc" />
    <path
       inkscape:connector-curvature="0"
       style="fill:#77b255;stroke-width:0.48293504"
       d="m 279.39998,383.77036 c 15.17914,0 27.47999,-12.3018 27.47999,-27.47366 0,-15.17195 -12.3018,-27.47373 -27.47999,-27.47373 -15.1719,0 -27.47368,12.30519 -27.47368,27.47419 0,15.1738 12.30178,27.47417 27.47368,27.47417"
       id="path4917" />
    <path
       inkscape:connector-curvature="0"
       style="fill:#ffcc4d;stroke-width:0.48293504"
       d="m 203.84479,383.77036 c 15.17914,0 27.47997,-12.3018 27.47997,-27.47366 0,-15.17191 -12.30179,-27.47373 -27.47997,-27.47373 -15.1719,0 -27.47367,12.30039 -27.47367,27.47419 0,15.16896 12.30177,27.47417 27.47367,27.47417"
       id="path4919" />
    <path
       inkscape:connector-curvature="0"
       style="fill:#dd2e44;stroke-width:0.48293504"
       d="m 128.29444,383.77036 c 15.17912,0 27.47999,-12.30132 27.47999,-27.47366 0,-15.17239 -12.30183,-27.47375 -27.47999,-27.47375 -15.17192,0 -27.4738,12.30278 -27.4738,27.47468 0,15.17187 12.30188,27.4737 27.4738,27.4737"
       id="path4921" />
    <flowRoot
       xml:space="preserve"
       id="flowRoot4963"
       style="font-style:normal;font-weight:normal;font-size:40px;line-height:1.25;font-family:sans-serif;letter-spacing:0px;word-spacing:0px;fill:#000000;fill-opacity:1;stroke:none"
       transform="matrix(0.26458333,0,0,0.26458333,5.2916665,196.45833)"><flowRegion
         id="flowRegion4965"><rect
           id="rect4967"
           width="560"
           height="100"
           x="260"
           y="60.000027" /></flowRegion><flowPara
         id="flowPara4969" /></flowRoot>    <g
       aria-label="GREENLIGHT"
       style="font-style:normal;font-weight:normal;font-size:14.28138351px;line-height:1.25;font-family:sans-serif;letter-spacing:0px;word-spacing:0px;fill:#000000;fill-opacity:1;stroke:none;stroke-width:0.35703459"
       id="text4983">
      <path
         d="m 103.71394,228.95228 q 0,-2.57175 0.79375,-4.572 0.8255,-2.032 2.19075,-3.429 1.397,-1.397 3.2385,-2.12725 1.87325,-0.73025 3.96875,-0.73025 2.19075,0 3.77825,0.8255 1.61925,0.8255 2.63525,1.87325 l -2.57175,2.88925 q -0.762,-0.73025 -1.61925,-1.143 -0.8255,-0.41275 -2.159,-0.41275 -1.2065,0 -2.2225,0.47625 -0.98425,0.4445 -1.7145,1.30175 -0.73025,0.85725 -1.143,2.0955 -0.381,1.23825 -0.381,2.794 0,3.20675 1.42875,4.98475 1.4605,1.74625 4.3815,1.74625 0.635,0 1.23825,-0.15875 0.60325,-0.15875 0.98425,-0.47625 v -3.556 h -3.429 v -3.81 h 7.5565 v 9.525 q -1.11125,1.04775 -2.921,1.778 -1.80975,0.73025 -4.0005,0.73025 -2.0955,0 -3.937,-0.66675 -1.80975,-0.6985 -3.175,-2.032 -1.36525,-1.3335 -2.159,-3.302 -0.762,-2.00025 -0.762,-4.60375 z"
         style="font-style:normal;font-variant:normal;font-weight:bold;font-stretch:normal;font-size:31.75px;font-family:'Source Sans Pro';-inkscape-font-specification:'Source Sans Pro, Bold';font-variant-ligatures:normal;font-variant-caps:normal;font-variant-numeric:normal;font-feature-settings:normal;text-align:start;letter-spacing:2.3812499px;writing-mode:lr-tb;text-anchor:start;fill:#ffffff;fill-opacity:1;stroke-width:0.35703459"
         id="path4189" />
      <path
         d="m 132.02452,227.99978 h 2.413 q 1.8415,0 2.794,-0.762 0.98425,-0.79375 0.98425,-2.31775 0,-1.524 -0.98425,-2.12725 -0.9525,-0.60325 -2.794,-0.60325 h -2.413 z m 6.5405,11.176 -3.96875,-7.46125 h -2.57175 v 7.46125 h -4.66725 v -20.701 h 7.46125 q 1.651,0 3.07975,0.3175 1.4605,0.3175 2.54,1.0795 1.0795,0.73025 1.7145,1.9685 0.635,1.23825 0.635,3.07975 0,2.286 -1.016,3.77825 -0.98425,1.4605 -2.667,2.19075 l 4.699,8.28675 z"
         style="font-style:normal;font-variant:normal;font-weight:bold;font-stretch:normal;font-size:31.75px;font-family:'Source Sans Pro';-inkscape-font-specification:'Source Sans Pro, Bold';font-variant-ligatures:normal;font-variant-caps:normal;font-variant-numeric:normal;font-feature-settings:normal;text-align:start;letter-spacing:2.3812499px;writing-mode:lr-tb;text-anchor:start;fill:#ffffff;fill-opacity:1;stroke-width:0.35703459"
         id="path4191" />
      <path
         d="m 149.27222,218.47478 h 12.954 v 3.937 h -8.28675 v 4.15925 h 7.0485 v 3.90525 h -7.0485 v 4.7625 h 8.60425 v 3.937 h -13.2715 z"
         style="font-style:normal;font-variant:normal;font-weight:bold;font-stretch:normal;font-size:31.75px;font-family:'Source Sans Pro';-inkscape-font-specification:'Source Sans Pro, Bold';font-variant-ligatures:normal;font-variant-caps:normal;font-variant-numeric:normal;font-feature-settings:normal;text-align:start;letter-spacing:2.3812499px;writing-mode:lr-tb;text-anchor:start;fill:#ffffff;fill-opacity:1;stroke-width:0.35703459"
         id="path4193" />
      <path
         d="m 169.07876,218.47478 h 12.954 v 3.937 h -8.28675 v 4.15925 h 7.0485 v 3.90525 h -7.0485 v 4.7625 h 8.60425 v 3.937 h -13.2715 z"
         style="font-style:normal;font-variant:normal;font-weight:bold;font-stretch:normal;font-size:31.75px;font-family:'Source Sans Pro';-inkscape-font-specification:'Source Sans Pro, Bold';font-variant-ligatures:normal;font-variant-caps:normal;font-variant-numeric:normal;font-feature-settings:normal;text-align:start;letter-spacing:2.3812499px;writing-mode:lr-tb;text-anchor:start;fill:#ffffff;fill-opacity:1;stroke-width:0.35703459"
         id="path4195" />
      <path
         d="m 188.8853,218.47478 h 4.79425 l 5.3975,10.287 2.032,4.572 h 0.127 q -0.15875,-1.651 -0.381,-3.683 -0.1905,-2.032 -0.1905,-3.8735 v -7.3025 h 4.445 v 20.701 h -4.79425 l -5.3975,-10.31875 -2.032,-4.5085 h -0.127 q 0.15875,1.7145 0.34925,3.683 0.22225,1.9685 0.22225,3.81 v 7.33425 h -4.445 z"
         style="font-style:normal;font-variant:normal;font-weight:bold;font-stretch:normal;font-size:31.75px;font-family:'Source Sans Pro';-inkscape-font-specification:'Source Sans Pro, Bold';font-variant-ligatures:normal;font-variant-caps:normal;font-variant-numeric:normal;font-feature-settings:normal;text-align:start;letter-spacing:2.3812499px;writing-mode:lr-tb;text-anchor:start;fill:#ffffff;fill-opacity:1;stroke-width:0.35703459"
         id="path4197" />
      <path
         d="m 212.35053,218.47478 h 4.66725 v 16.764 h 8.1915 v 3.937 h -12.85875 z"
         style="font-style:normal;font-variant:normal;font-weight:bold;font-stretch:normal;font-size:31.75px;font-family:'Source Sans Pro';-inkscape-font-specification:'Source Sans Pro, Bold';font-variant-ligatures:normal;font-variant-caps:normal;font-variant-numeric:normal;font-feature-settings:normal;text-align:start;letter-spacing:2.3812499px;writing-mode:lr-tb;text-anchor:start;fill:#ffffff;fill-opacity:1;stroke-width:0.35703459"
         id="path4199" />
      <path
         d="m 231.16489,218.47478 h 4.66725 v 20.701 h -4.66725 z"
         style="font-style:normal;font-variant:normal;font-weight:bold;font-stretch:normal;font-size:31.75px;font-family:'Source Sans Pro';-inkscape-font-specification:'Source Sans Pro, Bold';font-variant-ligatures:normal;font-variant-caps:normal;font-variant-numeric:normal;font-feature-settings:normal;text-align:start;letter-spacing:2.3812499px;writing-mode:lr-tb;text-anchor:start;fill:#ffffff;fill-opacity:1;stroke-width:0.35703459"
         id="path4201" />
      <path
         d="m 242.11169,228.95228 q 0,-2.57175 0.79375,-4.572 0.8255,-2.032 2.19075,-3.429 1.397,-1.397 3.2385,-2.12725 1.87325,-0.73025 3.96875,-0.73025 2.19075,0 3.77825,0.8255 1.61925,0.8255 2.63525,1.87325 l -2.57175,2.88925 q -0.762,-0.73025 -1.61925,-1.143 -0.8255,-0.41275 -2.159,-0.41275 -1.2065,0 -2.2225,0.47625 -0.98425,0.4445 -1.7145,1.30175 -0.73025,0.85725 -1.143,2.0955 -0.381,1.23825 -0.381,2.794 0,3.20675 1.42875,4.98475 1.4605,1.74625 4.3815,1.74625 0.635,0 1.23825,-0.15875 0.60325,-0.15875 0.98425,-0.47625 v -3.556 h -3.429 v -3.81 h 7.5565 v 9.525 q -1.11125,1.04775 -2.921,1.778 -1.80975,0.73025 -4.0005,0.73025 -2.0955,0 -3.937,-0.66675 -1.80975,-0.6985 -3.175,-2.032 -1.36525,-1.3335 -2.159,-3.302 -0.762,-2.00025 -0.762,-4.60375 z"
         style="font-style:normal;font-variant:normal;font-weight:bold;font-stretch:normal;font-size:31.75px;font-family:'Source Sans Pro';-inkscape-font-specification:'Source Sans Pro, Bold';font-variant-ligatures:normal;font-variant-caps:normal;font-variant-numeric:normal;font-feature-settings:normal;text-align:start;letter-spacing:2.3812499px;writing-mode:lr-tb;text-anchor:start;fill:#ffffff;fill-opacity:1;stroke-width:0.35703459"
         id="path4203" />
      <path
         d="m 265.75503,218.47478 h 4.66725 v 7.96925 h 7.14375 v -7.96925 h 4.699 v 20.701 h -4.699 v -8.636 h -7.14375 v 8.636 h -4.66725 z"
         style="font-style:normal;font-variant:normal;font-weight:bold;font-stretch:normal;font-size:31.75px;font-family:'Source Sans Pro';-inkscape-font-specification:'Source Sans Pro, Bold';font-variant-ligatures:normal;font-variant-caps:normal;font-variant-numeric:normal;font-feature-settings:normal;text-align:start;letter-spacing:2.3812499px;writing-mode:lr-tb;text-anchor:start;fill:#ffffff;fill-opacity:1;stroke-width:0.35703459"
         id="path4205" />
      <path
         d="m 293.56256,222.41178 h -5.68325 v -3.937 h 16.0655 v 3.937 h -5.68325 v 16.764 h -4.699 z"
         style="font-style:normal;font-variant:normal;font-weight:bold;font-stretch:normal;font-size:31.75px;font-family:'Source Sans Pro';-inkscape-font-specification:'Source Sans Pro, Bold';font-variant-ligatures:normal;font-variant-caps:normal;font-variant-numeric:normal;font-feature-settings:normal;text-align:start;letter-spacing:2.3812499px;writing-mode:lr-tb;text-anchor:start;fill:#ffffff;fill-opacity:1;stroke-width:0.35703459"
         id="path4207" />
    </g>
    <g
       aria-label="AUDIT EVERYTHING"
       style="font-style:normal;font-weight:normal;font-size:10.58333302px;line-height:1.25;font-family:sans-serif;letter-spacing:4.31270885px;word-spacing:0px;fill:#ffffff;fill-opacity:1;stroke:none;stroke-width:0.26458332"
       id="text4987">
      <path
         d="m 110.30065,259.52708 -0.81138,-2.32833 q -0.37042,-1.05834 -0.70556,-2.01084 -0.3175,-0.9525 -0.635,-2.04611 h -0.0706 q -0.3175,1.09361 -0.65263,2.04611 -0.3175,0.9525 -0.68792,2.01084 l -0.82903,2.32833 z m 0.17639,0.49389 h -4.74486 l -1.46403,4.16278 h -0.56444 l 4.16278,-11.64167 h 0.49389 l 4.16277,11.64167 h -0.59972 z"
         style="font-style:normal;font-variant:normal;font-weight:200;font-stretch:normal;font-size:17.63888931px;font-family:'Source Sans Pro';-inkscape-font-specification:'Source Sans Pro Ultra-Light';font-variant-ligatures:normal;font-variant-caps:normal;font-variant-numeric:normal;font-feature-settings:normal;text-align:start;letter-spacing:4.28625011px;writing-mode:lr-tb;text-anchor:start;fill:#ffffff;fill-opacity:1;stroke-width:0.26458332"
         id="path4210" />
      <path
         d="m 118.39608,252.54208 h 0.56444 v 7.16139 q 0,1.19944 0.26459,2.01083 0.26458,0.79375 0.70555,1.27 0.45861,0.47625 1.0407,0.68792 0.59972,0.19403 1.23472,0.19403 0.65264,0 1.25236,-0.19403 0.59972,-0.21167 1.05833,-0.68792 0.45861,-0.47625 0.7232,-1.27 0.28222,-0.81139 0.28222,-2.01083 v -7.16139 h 0.52917 v 7.3025 q 0,1.35819 -0.33514,2.24014 -0.33514,0.8643 -0.88195,1.39347 -0.5468,0.51153 -1.23472,0.70556 -0.68792,0.21166 -1.39347,0.21166 -0.70556,0 -1.39347,-0.21166 -0.67028,-0.19403 -1.21709,-0.70556 -0.52916,-0.52917 -0.8643,-1.39347 -0.33514,-0.88195 -0.33514,-2.24014 z"
         style="font-style:normal;font-variant:normal;font-weight:200;font-stretch:normal;font-size:17.63888931px;font-family:'Source Sans Pro';-inkscape-font-specification:'Source Sans Pro Ultra-Light';font-variant-ligatures:normal;font-variant-caps:normal;font-variant-numeric:normal;font-feature-settings:normal;text-align:start;letter-spacing:4.28625011px;writing-mode:lr-tb;text-anchor:start;fill:#ffffff;fill-opacity:1;stroke-width:0.26458332"
         id="path4212" />
      <path
         d="m 133.84526,252.54208 h 2.61056 q 1.34056,0 2.32833,0.42333 0.98778,0.4057 1.62278,1.18181 0.65264,0.75847 0.9525,1.83444 0.3175,1.05834 0.3175,2.34598 0,1.30527 -0.3175,2.38125 -0.29986,1.07597 -0.9525,1.85208 -0.635,0.75847 -1.62278,1.19944 -0.98777,0.42334 -2.32833,0.42334 h -2.61056 z m 2.54,11.14778 q 1.23473,0 2.11667,-0.4057 0.89958,-0.40569 1.46403,-1.11125 0.58208,-0.72319 0.84667,-1.71097 0.26458,-0.98778 0.26458,-2.1343 0,-1.14653 -0.26458,-2.11667 -0.26459,-0.97014 -0.84667,-1.6757 -0.56445,-0.70555 -1.46403,-1.09361 -0.88194,-0.40569 -2.11667,-0.40569 h -1.97555 v 10.65389 z"
         style="font-style:normal;font-variant:normal;font-weight:200;font-stretch:normal;font-size:17.63888931px;font-family:'Source Sans Pro';-inkscape-font-specification:'Source Sans Pro Ultra-Light';font-variant-ligatures:normal;font-variant-caps:normal;font-variant-numeric:normal;font-feature-settings:normal;text-align:start;letter-spacing:4.28625011px;writing-mode:lr-tb;text-anchor:start;fill:#ffffff;fill-opacity:1;stroke-width:0.26458332"
         id="path4214" />
      <path
         d="m 148.70796,252.54208 h 0.56444 v 11.64167 h -0.56444 z"
         style="font-style:normal;font-variant:normal;font-weight:200;font-stretch:normal;font-size:17.63888931px;font-family:'Source Sans Pro';-inkscape-font-specification:'Source Sans Pro Ultra-Light';font-variant-ligatures:normal;font-variant-caps:normal;font-variant-numeric:normal;font-feature-settings:normal;text-align:start;letter-spacing:4.28625011px;writing-mode:lr-tb;text-anchor:start;fill:#ffffff;fill-opacity:1;stroke-width:0.26458332"
         id="path4216" />
      <path
         d="m 159.63387,253.03597 h -3.77472 v -0.49389 h 8.11389 v 0.49389 h -3.77472 v 11.14778 h -0.56445 z"
         style="font-style:normal;font-variant:normal;font-weight:200;font-stretch:normal;font-size:17.63888931px;font-family:'Source Sans Pro';-inkscape-font-specification:'Source Sans Pro Ultra-Light';font-variant-ligatures:normal;font-variant-caps:normal;font-variant-numeric:normal;font-feature-settings:normal;text-align:start;letter-spacing:4.28625011px;writing-mode:lr-tb;text-anchor:start;fill:#ffffff;fill-opacity:1;stroke-width:0.26458332"
         id="path4218" />
      <path
         d="m 178.30987,252.54208 h 6.24417 v 0.49389 h -5.67972 v 4.69194 h 4.7625 v 0.49389 h -4.7625 v 5.46806 h 5.85611 v 0.49389 h -6.42056 z"
         style="font-style:normal;font-variant:normal;font-weight:200;font-stretch:normal;font-size:17.63888931px;font-family:'Source Sans Pro';-inkscape-font-specification:'Source Sans Pro Ultra-Light';font-variant-ligatures:normal;font-variant-caps:normal;font-variant-numeric:normal;font-feature-settings:normal;text-align:start;letter-spacing:4.28625011px;writing-mode:lr-tb;text-anchor:start;fill:#ffffff;fill-opacity:1;stroke-width:0.26458332"
         id="path4220" />
      <path
         d="m 189.92977,252.54208 h 0.59972 l 2.25778,6.985 q 0.17639,0.54681 0.3175,1.02306 0.15875,0.47625 0.29986,0.9525 0.15875,0.45861 0.29986,0.9525 0.15875,0.47625 0.35278,1.00541 h 0.0706 q 0.17638,-0.52916 0.33513,-1.00541 0.15875,-0.49389 0.29987,-0.9525 0.15875,-0.47625 0.29986,-0.9525 0.15875,-0.47625 0.33514,-1.02306 l 2.25777,-6.985 h 0.56445 l -3.84528,11.64167 h -0.56444 z"
         style="font-style:normal;font-variant:normal;font-weight:200;font-stretch:normal;font-size:17.63888931px;font-family:'Source Sans Pro';-inkscape-font-specification:'Source Sans Pro Ultra-Light';font-variant-ligatures:normal;font-variant-caps:normal;font-variant-numeric:normal;font-feature-settings:normal;text-align:start;letter-spacing:4.28625011px;writing-mode:lr-tb;text-anchor:start;fill:#ffffff;fill-opacity:1;stroke-width:0.26458332"
         id="path4222" />
      <path
         d="m 204.38346,252.54208 h 6.24416 v 0.49389 h -5.67972 v 4.69194 h 4.7625 v 0.49389 h -4.7625 v 5.46806 h 5.85611 v 0.49389 h -6.42055 z"
         style="font-style:normal;font-variant:normal;font-weight:200;font-stretch:normal;font-size:17.63888931px;font-family:'Source Sans Pro';-inkscape-font-specification:'Source Sans Pro Ultra-Light';font-variant-ligatures:normal;font-variant-caps:normal;font-variant-numeric:normal;font-feature-settings:normal;text-align:start;letter-spacing:4.28625011px;writing-mode:lr-tb;text-anchor:start;fill:#ffffff;fill-opacity:1;stroke-width:0.26458332"
         id="path4224" />
      <path
         d="m 220.66001,258.18652 q 1.62278,0 2.48709,-0.635 0.8643,-0.65263 0.8643,-2.01083 0,-1.37583 -0.8643,-1.94028 -0.86431,-0.56444 -2.48709,-0.56444 h -2.43416 v 5.15055 z m 3.45723,5.99723 -3.28084,-5.50334 h -2.61055 v 5.50334 h -0.56445 v -11.64167 h 3.21028 q 0.86431,0 1.55222,0.17639 0.68792,0.15875 1.16417,0.52916 0.49389,0.35278 0.75847,0.91723 0.26459,0.56444 0.26459,1.37583 0,1.39347 -0.84667,2.18722 -0.82903,0.77611 -2.29306,0.91723 l 3.31611,5.53861 z"
         style="font-style:normal;font-variant:normal;font-weight:200;font-stretch:normal;font-size:17.63888931px;font-family:'Source Sans Pro';-inkscape-font-specification:'Source Sans Pro Ultra-Light';font-variant-ligatures:normal;font-variant-caps:normal;font-variant-numeric:normal;font-feature-settings:normal;text-align:start;letter-spacing:4.28625011px;writing-mode:lr-tb;text-anchor:start;fill:#ffffff;fill-opacity:1;stroke-width:0.26458332"
         id="path4226" />
      <path
         d="m 233.32419,259.38597 -3.4925,-6.84389 h 0.59972 l 1.86972,3.77472 q 0.3175,0.635 0.61736,1.25236 0.29986,0.61736 0.65264,1.25236 h 0.0706 q 0.35277,-0.635 0.67027,-1.25236 0.33514,-0.61736 0.635,-1.25236 l 1.86973,-3.77472 h 0.56444 l -3.4925,6.84389 v 4.79778 h -0.56444 z"
         style="font-style:normal;font-variant:normal;font-weight:200;font-stretch:normal;font-size:17.63888931px;font-family:'Source Sans Pro';-inkscape-font-specification:'Source Sans Pro Ultra-Light';font-variant-ligatures:normal;font-variant-caps:normal;font-variant-numeric:normal;font-feature-settings:normal;text-align:start;letter-spacing:4.28625011px;writing-mode:lr-tb;text-anchor:start;fill:#ffffff;fill-opacity:1;stroke-width:0.26458332"
         id="path4228" />
      <path
         d="m 245.86157,253.03597 h -3.77472 v -0.49389 h 8.11389 v 0.49389 h -3.77472 v 11.14778 h -0.56445 z"
         style="font-style:normal;font-variant:normal;font-weight:200;font-stretch:normal;font-size:17.63888931px;font-family:'Source Sans Pro';-inkscape-font-specification:'Source Sans Pro Ultra-Light';font-variant-ligatures:normal;font-variant-caps:normal;font-variant-numeric:normal;font-feature-settings:normal;text-align:start;letter-spacing:4.28625011px;writing-mode:lr-tb;text-anchor:start;fill:#ffffff;fill-opacity:1;stroke-width:0.26458332"
         id="path4230" />
      <path
         d="m 256.77179,252.54208 h 0.56444 v 5.18583 h 6.52639 v -5.18583 h 0.56444 v 11.64167 h -0.56444 v -5.96195 h -6.52639 v 5.96195 h -0.56444 z"
         style="font-style:normal;font-variant:normal;font-weight:200;font-stretch:normal;font-size:17.63888931px;font-family:'Source Sans Pro';-inkscape-font-specification:'Source Sans Pro Ultra-Light';font-variant-ligatures:normal;font-variant-caps:normal;font-variant-numeric:normal;font-feature-settings:normal;text-align:start;letter-spacing:4.28625011px;writing-mode:lr-tb;text-anchor:start;fill:#ffffff;fill-opacity:1;stroke-width:0.26458332"
         id="path4232" />
      <path
         d="m 272.25459,252.54208 h 0.56444 v 11.64167 h -0.56444 z"
         style="font-style:normal;font-variant:normal;font-weight:200;font-stretch:normal;font-size:17.63888931px;font-family:'Source Sans Pro';-inkscape-font-specification:'Source Sans Pro Ultra-Light';font-variant-ligatures:normal;font-variant-caps:normal;font-variant-numeric:normal;font-feature-settings:normal;text-align:start;letter-spacing:4.28625011px;writing-mode:lr-tb;text-anchor:start;fill:#ffffff;fill-opacity:1;stroke-width:0.26458332"
         id="path4234" />
      <path
         d="m 280.64051,252.54208 h 0.59973 l 5.15055,8.53722 1.34056,2.29306 h 0.0705 q -0.0353,-0.84667 -0.0529,-1.64042 -0.0176,-0.81139 -0.0176,-1.64042 v -7.54944 h 0.52916 v 11.64167 h -0.59972 l -5.15055,-8.53723 -1.34056,-2.29305 h -0.0706 q 0.0353,0.82903 0.0529,1.5875 0.0176,0.75847 0.0176,1.5875 v 7.65528 h -0.52917 z"
         style="font-style:normal;font-variant:normal;font-weight:200;font-stretch:normal;font-size:17.63888931px;font-family:'Source Sans Pro';-inkscape-font-specification:'Source Sans Pro Ultra-Light';font-variant-ligatures:normal;font-variant-caps:normal;font-variant-numeric:normal;font-feature-settings:normal;text-align:start;letter-spacing:4.28625011px;writing-mode:lr-tb;text-anchor:start;fill:#ffffff;fill-opacity:1;stroke-width:0.26458332"
         id="path4236" />
      <path
         d="m 295.31275,258.32764 q 0,-1.37584 0.35278,-2.48709 0.37042,-1.11125 1.02306,-1.88736 0.67027,-0.77611 1.60513,-1.19944 0.9525,-0.42334 2.09903,-0.42334 0.58209,0 1.05834,0.12347 0.47625,0.12348 0.84666,0.33514 0.38806,0.19403 0.67028,0.44098 0.29986,0.24694 0.52917,0.47625 l -0.35278,0.38805 q -0.45861,-0.51153 -1.11125,-0.8643 -0.65264,-0.37042 -1.64042,-0.37042 -1.04069,0 -1.86972,0.38805 -0.82903,0.37042 -1.41111,1.09362 -0.58208,0.70555 -0.89958,1.72861 -0.29987,1.00541 -0.29987,2.25778 0,1.25236 0.29987,2.27541 0.29986,1.02306 0.84666,1.74625 0.56445,0.7232 1.3582,1.12889 0.81139,0.38806 1.83444,0.38806 0.84667,0 1.5875,-0.24695 0.74083,-0.24694 1.19945,-0.70555 v -3.84528 h -2.89278 v -0.49389 h 3.45722 v 4.51556 q -0.52917,0.58208 -1.39347,0.9525 -0.84667,0.35277 -1.9932,0.35277 -1.11125,0 -2.02847,-0.42333 -0.89958,-0.44097 -1.53458,-1.23472 -0.635,-0.79375 -0.98778,-1.905 -0.35278,-1.12889 -0.35278,-2.50472 z"
         style="font-style:normal;font-variant:normal;font-weight:200;font-stretch:normal;font-size:17.63888931px;font-family:'Source Sans Pro';-inkscape-font-specification:'Source Sans Pro Ultra-Light';font-variant-ligatures:normal;font-variant-caps:normal;font-variant-numeric:normal;font-feature-settings:normal;text-align:start;letter-spacing:4.28625011px;writing-mode:lr-tb;text-anchor:start;fill:#ffffff;fill-opacity:1;stroke-width:0.26458332"
         id="path4238" />
    </g>
  </g>
</svg>
